<svg xmlns="http://www.w3.org/2000/svg" width="18" height="18" viewBox="0 0 18 18"><path fill="#333" d="M5.06 12.01C1.99 12.47 0 13.4 0 14.73c0 1.82 4.01 3 9 3s9-1.18 9-3c0-1.16-1.5-2.01-3.93-2.52a.49.49 0 0 0-.59.38.5.5 0 0 0 .38.6c1.98.42 3.14 1.07 3.14 1.54 0 .94-3.6 2-8 2s-8-1.06-8-2c0-.58 1.64-1.35 4.21-1.74a.49.49 0 0 0 .42-.56.49.49 0 0 0-.57-.42z"/><path fill="#333" d="M10.7 10.77l.9-1c1.3-1.45 1.8-2.46 1.8-4.07a4.7 4.7 0 0 0-5.16-4.68 4.8 4.8 0 0 0-4.16 5.67c.19 1.11.67 1.92 1.71 3.08l.9 1a11.05 11.05 0 0 1 2 2.98 11.34 11.34 0 0 1 2.01-2.98zm3.7-5.07c0 1.9-.61 3.11-2.05 4.74l-.9 1a9.8 9.8 0 0 0-1.95 2.97.87.87 0 0 1-1.61 0 9.8 9.8 0 0 0-1.95-2.97l-.9-1C3.89 9.14 3.33 8.2 3.09 6.87A5.81 5.81 0 0 1 8.14.03 5.7 5.7 0 0 1 14.4 5.7zm-2.46 0a3.24 3.24 0 1 1-6.48 0 3.24 3.24 0 0 1 6.48 0zm-1 0a2.25 2.25 0 1 0-4.5 0 2.25 2.25 0 0 0 4.5 0z"/></svg>