<svg xmlns="http://www.w3.org/2000/svg" width="27" height="14" viewBox="0 0 27 14"><defs><clipPath id="a"><path fill="#fff" d="M315 560c0-1.1.9-2 2-2h23a2 2 0 0 1 2 2v10a2 2 0 0 1-2 2h-23a2 2 0 0 1-2-2z"/></clipPath></defs><path fill="none" stroke="#333" stroke-miterlimit="50" stroke-width="2" d="M315 560c0-1.1.9-2 2-2h23a2 2 0 0 1 2 2v10a2 2 0 0 1-2 2h-23a2 2 0 0 1-2-2z" clip-path="url(&quot;#a&quot;)" transform="translate(-315 -558)"/><path fill="#333" d="M4 3h4.19v.81H4.91v2.63h3.06v.82H4.91v3.44H4zm8.09 3.05a1.77 1.77 0 0 0-.62-.11c-.32 0-.57.08-.75.26-.18.17-.3.39-.34.65v3.85H9.5V5.2h.61l.17.67h.04c.14-.25.31-.44.5-.58.2-.13.45-.2.75-.2.21 0 .45.04.71.11zm5.06 4.21c-.22.18-.49.32-.83.42-.33.1-.68.15-1.06.15-.42 0-.78-.07-1.09-.2a2 2 0 0 1-.76-.58 2.85 2.85 0 0 1-.44-.91 4.8 4.8 0 0 1-.14-1.19c0-.94.21-1.65.63-2.15.42-.49 1.01-.73 1.79-.73.25 0 .5.03.75.08.25.06.47.16.67.31.2.16.36.38.48.66.13.28.19.65.19 1.12 0 .24-.02.5-.07.8h-3.53c0 .32.04.61.1.86.07.25.17.46.31.63.14.17.32.3.55.39.22.1.49.14.81.14a2.2 2.2 0 0 0 1.31-.44zm-1.89-4.42c-.43 0-.78.11-1.04.34-.26.23-.41.61-.47 1.17h2.73c0-.56-.1-.95-.32-1.18-.21-.22-.51-.33-.9-.33zm7.38 4.42c-.22.18-.49.32-.83.42-.33.1-.69.15-1.06.15-.42 0-.78-.07-1.09-.2a2 2 0 0 1-.76-.58c-.2-.26-.34-.56-.44-.91a4.8 4.8 0 0 1-.14-1.19c0-.94.21-1.65.63-2.15.41-.49 1.01-.73 1.79-.73.25 0 .5.03.75.08.25.06.47.16.67.31.2.16.36.38.48.66.13.28.19.65.19 1.12 0 .24-.02.5-.07.8h-3.53c0 .32.03.61.1.86s.17.46.31.63c.14.17.32.3.54.39.23.1.5.14.82.14a2.2 2.2 0 0 0 1.31-.44zm-1.89-4.42c-.43 0-.78.11-1.04.34-.26.23-.42.61-.47 1.17h2.73c0-.56-.11-.95-.32-1.18-.21-.22-.51-.33-.9-.33z"/></svg>